<?xml version="1.0" standalone="no"?>
<!DOCTYPE svg PUBLIC "-//W3C//DTD SVG 20010904//EN"
 "http://www.w3.org/TR/2001/REC-SVG-20010904/DTD/svg10.dtd">
<svg version="1.0" xmlns="http://www.w3.org/2000/svg"
 width="981.000000pt" height="587.000000pt" viewBox="0 0 981.000000 587.000000"
 preserveAspectRatio="xMidYMid meet">
<metadata>
Created by potrace 1.16, written by Peter Selinger 2001-2019
</metadata>
<g transform="translate(0.000000,587.000000) scale(0.100000,-0.100000)"
fill="#000000" stroke="none">
<path d="M90 4170 l0 -1640 24 -10 c14 -5 34 -7 46 -5 12 2 18 0 14 -6 -3 -6
-22 -9 -43 -7 l-36 3 -3 -418 -2 -417 140 1 c159 1 160 1 140 72 -14 47 -14
58 -4 142 7 52 9 56 15 30 4 -16 7 -78 8 -137 l1 -107 28 -4 c19 -3 14 -5 -18
-7 l-45 -3 35 -6 c36 -7 75 -3 65 7 -2 3 0 11 5 17 13 15 16 59 7 99 -4 17 -4
41 0 54 11 43 23 1 23 -80 0 -76 1 -78 24 -78 13 0 27 -6 29 -12 3 -7 6 22 6
64 1 51 5 78 13 81 10 4 10 6 1 6 -18 1 -16 21 1 21 8 0 17 -12 21 -27 4 -16
10 -22 12 -15 7 17 30 15 37 -4 3 -9 6 -39 6 -67 0 -49 1 -52 26 -52 l25 0 -6
91 c-6 90 -6 91 19 108 35 22 35 50 1 42 -24 -6 -25 -5 -25 42 0 47 -1 49 -25
44 -26 -5 -32 -16 -15 -27 6 -3 10 -12 10 -18 0 -7 -4 -6 -10 3 -7 10 -10 -7
-10 -57 0 -68 -10 -97 -26 -72 -3 6 0 15 7 20 8 5 9 9 3 9 -6 0 -10 10 -9 23
1 12 -4 38 -11 57 -8 23 -13 28 -13 15 -1 -17 -3 -17 -11 -5 -5 8 -7 22 -4 31
2 9 -2 19 -10 22 -9 4 -16 -3 -20 -19 -5 -19 -12 -25 -29 -22 -18 2 -22 9 -20
38 1 19 -1 29 -3 23 -3 -7 -17 -13 -30 -13 -13 0 -24 -4 -24 -10 0 -14 -37
-12 -43 3 -3 6 -6 -1 -7 -18 -2 -18 -4 -23 -7 -12 -2 9 -9 17 -14 17 -5 0 -9
10 -10 23 l0 22 -9 -22 c-10 -25 -25 -30 -33 -10 -3 6 -4 -40 -1 -103 4 -99 3
-112 -9 -96 -9 13 -19 16 -28 10 -11 -6 -10 -3 2 16 15 24 22 163 8 157 -3 -1
-13 4 -22 12 -15 12 -17 9 -17 -38 0 -44 -3 -51 -20 -51 -18 0 -20 7 -20 85 0
84 3 92 35 85 22 -5 177 -1 183 4 3 3 -27 6 -66 6 -72 0 -72 0 -72 27 0 21 3
24 12 15 7 -7 41 -12 85 -12 59 0 71 3 67 14 -3 8 -13 17 -22 19 -10 3 29 5
84 6 l102 1 6 -35 c8 -39 -7 -35 153 -39 45 -1 85 -4 88 -8 4 -3 9 -49 12
-102 l6 -96 -27 0 c-14 0 -26 -6 -27 -12 0 -7 -4 -4 -8 7 -5 11 -4 25 0 31 6
8 4 14 -6 18 -9 3 -14 9 -12 14 3 4 -1 18 -9 32 -13 24 -13 23 -14 -22 0 -37
-4 -48 -16 -48 -12 0 -9 -7 12 -29 23 -24 33 -28 65 -25 25 3 39 1 39 -6 0 -6
-4 -8 -10 -5 -5 3 -10 -3 -10 -14 0 -10 6 -22 13 -25 6 -3 0 -4 -15 -2 -28 3
-28 2 -28 -50 0 -52 1 -54 28 -55 93 -4 740 3 756 8 17 5 18 13 12 132 -4 69
-10 147 -13 174 -5 44 -8 47 -34 47 -15 0 -32 7 -37 16 -6 11 -11 13 -16 5
-10 -15 -43 -14 -49 2 -3 6 -6 2 -6 -10 -1 -12 -5 -25 -11 -28 -5 -3 -10 -15
-10 -26 0 -43 -25 -11 -28 35 l-3 48 76 -4 c53 -2 79 -8 85 -18 8 -13 10 -13
10 1 0 14 14 18 78 21 92 5 178 -17 176 -45 -1 -9 4 -17 11 -17 20 0 24 -20
26 -164 1 -75 5 -136 9 -136 21 0 52 53 55 92 13 165 27 210 25 78 -2 -140 -2
-140 20 -140 23 0 24 5 25 125 0 75 3 90 16 93 19 3 28 -58 31 -200 l2 -78 38
0 c44 0 53 24 16 40 -20 8 -18 9 15 9 29 1 37 5 37 19 0 10 4 22 9 27 5 6 11
62 15 125 3 63 7 142 9 175 l4 60 34 3 34 3 0 -203 0 -203 24 0 c14 0 26 -6
29 -13 2 -8 -2 -10 -15 -5 -16 6 -17 5 -3 -13 11 -15 11 -16 0 -7 -18 17 -30
16 -30 -1 0 -11 18 -14 76 -15 41 0 80 -3 85 -7 22 -13 58 6 62 34 l4 27 2
-26 c2 -47 51 -50 51 -3 0 24 2 25 48 21 42 -3 47 -6 50 -30 4 -36 19 -34 27
3 4 17 10 28 15 25 5 -3 5 7 1 23 -5 16 -10 73 -12 128 -4 86 -2 99 13 102 21
4 25 -19 34 -181 5 -107 7 -117 21 -98 20 29 43 27 43 -4 0 -14 5 -25 10 -25
6 0 10 6 10 14 0 8 7 21 15 30 9 9 11 17 5 21 -6 4 -10 57 -10 130 0 97 3 124
14 128 22 9 26 -15 26 -151 0 -143 5 -172 29 -172 12 0 13 2 3 9 -11 7 -10 9
3 15 9 3 13 10 10 16 -3 5 -1 10 4 10 6 0 11 -11 11 -25 l0 -25 230 0 c128 0
230 4 230 9 0 5 22 9 49 8 54 0 141 21 141 34 0 5 -7 5 -17 2 -9 -4 -14 -2
-10 3 3 5 -3 10 -14 10 -10 0 -19 -6 -19 -13 0 -14 -12 -17 -23 -6 -4 3 -1 13
6 21 9 13 9 14 0 8 -7 -4 -13 -2 -13 3 0 6 4 11 9 11 8 0 10 24 11 123 0 21
-5 47 -10 58 -7 12 -7 19 -1 19 6 0 8 6 5 14 -3 8 -1 23 5 33 9 14 11 9 9 -29
-1 -25 3 -52 9 -60 13 -17 24 -60 13 -53 -4 3 -5 -5 -2 -17 5 -22 6 -22 17 6
8 20 14 25 18 15 3 -8 6 7 6 34 1 36 5 47 17 47 13 0 15 10 12 59 -1 33 0 57
5 54 4 -2 7 -30 8 -61 0 -39 3 -51 8 -37 l8 20 5 -20 c5 -16 6 -17 7 -2 1 18
21 25 21 6 0 -5 4 -8 9 -5 16 10 21 -23 21 -136 0 -83 3 -109 13 -105 6 2 22
0 34 -4 38 -14 53 13 55 94 0 40 2 90 2 111 1 22 7 41 14 43 9 4 12 -24 12
-119 1 -87 5 -128 14 -141 12 -15 15 -16 26 -2 15 18 24 85 12 85 -13 0 -2
173 11 186 10 11 17 -37 20 -141 2 -94 3 -100 23 -101 12 -1 54 -4 94 -8 l72
-7 -8 53 c-9 54 -9 80 -6 178 1 30 0 78 -4 107 l-6 51 55 4 c86 5 82 11 96
-120 6 -64 13 -151 14 -192 l2 -76 130 -3 c132 -3 150 -5 140 -22 -4 -5 1 -9
9 -9 9 0 15 6 13 13 -1 8 17 12 61 14 63 1 64 1 58 -23 -4 -14 -2 -24 4 -24 5
0 10 11 10 25 0 16 6 25 15 25 8 0 15 -7 15 -16 0 -8 5 -12 10 -9 6 4 7 11 4
17 -4 6 -2 8 4 4 20 -12 25 18 23 136 l-2 119 83 -5 c46 -4 95 -7 111 -8 27
-1 40 -18 13 -18 -7 0 -17 -10 -20 -23 -7 -21 -7 -21 -16 -2 -7 17 -9 18 -9 2
-1 -10 -16 -25 -36 -34 -33 -16 -44 -32 -79 -117 -20 -48 -12 -55 54 -57 47
-1 154 -15 132 -18 -18 -1 -5 -21 14 -21 11 0 13 6 9 20 -6 19 -2 20 139 20
157 0 176 3 176 30 0 14 -7 18 -31 16 -24 -1 -33 4 -40 22 -6 15 -5 21 1 17 6
-3 10 -3 10 2 0 14 -53 33 -92 33 -21 0 -38 3 -38 8 0 4 36 8 80 9 l80 2 0
-31 c0 -22 4 -29 14 -25 17 7 26 -13 26 -53 0 -16 5 -32 12 -36 7 -4 8 -3 4 4
-8 13 20 12 42 -1 7 -5 12 -3 12 4 0 7 3 10 6 6 3 -3 17 -2 29 3 13 5 25 5 27
1 2 -5 24 -6 51 -1 32 4 47 3 47 -4 0 -7 3 -7 8 1 5 8 13 9 22 3 8 -5 21 -5
30 0 17 9 38 9 55 -1 6 -4 19 -5 30 -3 11 2 45 6 75 8 45 4 57 1 72 -16 10
-12 18 -16 18 -10 0 7 9 12 21 12 15 0 19 -4 15 -16 -3 -9 -6 -17 -6 -20 0 -2
-6 -1 -13 2 -10 3 -12 -4 -9 -28 l4 -33 -374 0 c-205 0 -475 -1 -600 -3 l-228
-3 0 -31 0 -31 -177 6 c-98 4 -179 7 -180 7 -2 0 -3 11 -3 25 0 14 -4 25 -10
25 -5 0 -10 -11 -10 -25 0 -35 -28 -33 -32 2 l-3 28 -595 3 c-327 2 -1243 3
-2035 4 -791 0 -1448 3 -1460 6 -19 5 -18 6 5 13 22 6 20 7 -12 8 -27 1 -40
-4 -48 -18 -6 -13 -10 -141 -10 -349 0 -292 2 -331 16 -336 9 -3 20 -4 24 -1
5 3 11 1 15 -5 3 -5 3 -10 -2 -10 -10 0 -10 -61 0 -78 9 -13 27 -7 27 9 0 6
-3 8 -7 6 -11 -7 -8 57 3 74 6 10 10 6 15 -16 4 -16 8 33 9 110 3 148 8 148
12 1 2 -49 8 -91 13 -93 6 -2 9 41 7 121 l-3 124 31 7 c17 4 34 4 38 0 4 -4 9
-61 12 -127 l5 -121 28 -4 27 -4 0 118 c0 65 4 124 9 132 14 21 20 -32 23
-183 l3 -130 45 -2 c39 -2 47 1 55 19 6 12 19 26 30 32 17 9 20 21 22 90 3
114 12 188 23 199 7 7 10 -38 10 -132 l0 -142 50 0 50 0 1 53 c1 53 3 51 14
-15 4 -24 11 -38 20 -38 12 0 15 20 15 110 0 87 3 110 14 110 21 0 26 -23 26
-126 l0 -94 25 2 c25 2 25 3 25 104 0 74 4 105 14 113 19 16 26 -14 26 -126 0
-73 3 -93 14 -93 19 0 29 29 15 46 -7 9 -7 19 1 34 6 11 8 25 5 30 -3 6 -2 10
4 10 5 0 12 -19 14 -43 2 -23 4 -3 5 46 3 141 28 107 36 -48 2 -38 3 10 2 108
-1 162 0 177 17 177 14 0 17 -9 17 -47 0 -27 5 -108 12 -181 11 -127 12 -132
32 -126 12 4 26 6 31 6 6 -1 27 -5 48 -8 l37 -6 2 63 1 64 6 -55 6 -55 135 -7
c74 -5 138 -4 142 0 4 4 0 41 -11 82 -18 71 -18 106 -1 95 5 -3 14 -45 21 -94
l12 -88 107 0 106 0 -18 96 c-22 121 -22 135 -3 127 8 -3 19 2 24 12 9 14 11
10 12 -18 1 -22 3 -27 6 -13 2 12 11 24 19 27 16 6 26 -15 37 -71 6 -29 4 -33
-19 -39 -26 -7 -26 -8 -7 -91 4 -17 1 -23 -13 -24 -32 -1 37 -17 109 -24 47
-5 65 -10 60 -18 -3 -7 5 -2 19 11 17 15 27 19 30 12 2 -8 50 -17 123 -24 127
-13 161 -11 147 8 -5 6 -23 47 -40 91 -17 44 -46 117 -65 162 -19 45 -32 84
-29 87 3 4 26 6 51 6 l46 0 83 -165 c58 -116 78 -165 67 -165 -8 0 -15 -4 -15
-10 0 -5 14 -10 31 -10 23 0 30 4 26 14 -3 8 -12 51 -21 97 -27 147 -34 183
-49 239 -9 30 -17 73 -19 95 l-3 40 57 1 c54 1 57 -1 61 -25 l4 -26 2 26 c1
26 3 27 56 26 51 -1 56 -3 61 -27 3 -14 10 -36 16 -50 6 -14 12 -38 14 -54 2
-16 7 -32 10 -35 4 -3 4 4 1 17 -3 12 -1 20 4 16 5 -3 9 -12 9 -20 0 -8 6 -14
14 -14 9 0 12 -7 9 -20 -3 -11 0 -20 6 -20 6 0 11 -7 11 -16 0 -9 7 -37 15
-63 8 -25 21 -73 28 -106 l13 -60 107 -3 c85 -2 112 1 132 14 20 13 44 15 130
11 79 -3 109 -1 119 9 10 10 16 10 25 1 7 -7 12 -7 11 -2 -2 6 -1 39 0 75 2
52 4 59 10 35 4 -16 8 -49 9 -72 0 -24 5 -43 10 -43 13 0 31 58 33 103 2 60
17 31 16 -32 -1 -32 2 -63 6 -69 11 -19 26 -14 26 9 0 11 4 18 8 15 5 -3 5 21
1 52 -6 45 -5 58 7 65 11 6 14 32 14 117 l0 110 35 0 c20 0 37 -6 40 -12 3
-11 6 -92 15 -449 0 -3 63 -7 140 -8 128 -2 143 0 167 18 l26 21 -131 0 c-72
0 -133 4 -136 9 -7 11 4 74 12 67 2 -3 14 1 26 9 22 16 146 20 219 9 33 -6 37
-10 37 -36 0 -16 -4 -38 -10 -48 -9 -16 -5 -18 46 -22 30 -1 59 1 65 7 6 5 9
5 9 -2 0 -12 125 -23 313 -29 79 -2 127 0 127 6 0 6 -5 10 -11 10 -5 0 -7 4
-4 10 10 17 25 11 25 -9 0 -17 7 -20 43 -19 47 0 65 7 48 18 -9 5 -8 10 4 20
13 11 15 9 15 -14 0 -33 27 -35 40 -4 l9 23 0 -22 c1 -18 7 -23 26 -23 15 0
25 5 24 12 -3 23 1 91 5 87 2 -2 6 -23 9 -47 2 -23 7 -45 10 -49 8 -8 84 -9
92 -2 3 4 7 67 9 140 2 74 4 151 5 172 1 20 5 37 10 37 5 0 6 -76 3 -174 -3
-124 -2 -175 7 -180 6 -4 15 3 21 18 5 14 14 26 20 26 5 0 10 5 10 10 0 6 -7
10 -15 10 -12 0 -14 18 -12 105 1 73 6 106 15 110 17 6 15 46 -3 59 -9 6 -18
32 -20 60 -3 26 -7 52 -11 57 -3 5 0 9 6 9 6 0 8 5 4 11 -3 6 -9 44 -11 85 -5
64 -3 74 11 74 14 0 16 -16 16 -115 0 -105 2 -115 21 -125 12 -7 25 -8 32 -2
7 5 23 6 37 2 l25 -6 -3 -164 c-2 -116 -6 -166 -15 -172 -9 -6 -9 -8 1 -8 6 0
12 -11 12 -25 0 -20 5 -25 25 -25 26 0 35 24 13 33 -8 4 -4 8 9 12 28 9 30 21
4 28 -17 4 -18 13 -14 98 4 93 6 103 24 105 5 1 14 2 19 3 14 2 12 49 -2 65
-7 7 -22 11 -33 8 -18 -5 -18 -4 -6 11 12 15 11 17 -4 17 -9 0 -15 6 -12 13 2
6 13 10 23 8 10 -2 34 -4 52 -4 17 0 32 -4 32 -8 0 -4 15 -5 33 -2 18 2 44 0
58 -5 23 -9 28 -28 20 -74 0 -5 -26 -8 -56 -8 -30 0 -55 -4 -55 -10 0 -5 23
-10 50 -10 28 0 51 -4 51 -10 1 -5 2 -15 3 -22 2 -22 24 -19 28 4 2 18 9 23
33 23 l30 0 -3 -103 -2 -102 27 1 c16 1 21 3 13 5 -12 4 -14 20 -10 92 4 72 8
87 23 90 15 3 17 -6 17 -92 0 -53 4 -96 9 -96 5 0 9 40 8 89 0 96 4 111 34
111 17 0 19 -8 19 -99 l0 -99 77 -1 c97 -1 143 7 143 26 0 8 -4 11 -10 8 -10
-6 -21 26 -24 74 -2 31 8 42 32 34 8 -3 12 -28 12 -74 l0 -69 28 1 c15 1 42
-1 60 -5 21 -5 32 -4 32 3 0 6 -4 11 -9 11 -16 0 -5 35 12 38 12 3 17 -4 17
-22 0 -24 3 -26 46 -26 40 0 45 2 34 15 -7 9 -8 15 -2 15 5 0 13 -7 16 -16 4
-12 15 -15 37 -12 25 4 34 0 47 -21 l17 -25 6 34 c4 22 6 8 6 -40 l0 -75 -169
3 c-146 3 -169 1 -174 -13 -10 -26 2 -29 99 -30 l92 0 3 -32 c3 -27 0 -33 -17
-33 -11 0 -23 -4 -26 -10 -3 -5 -14 -10 -23 -10 -13 0 -14 2 -3 9 10 6 10 10
1 16 -6 4 -14 4 -17 1 -10 -9 -11 -150 -2 -156 4 -3 11 -36 15 -73 7 -66 6
-67 -17 -69 -43 -2 -47 -3 -55 -11 -4 -4 -2 -7 4 -7 7 0 12 -4 12 -10 0 -6
-28 -10 -62 -10 -37 0 -58 -4 -50 -8 7 -5 33 -8 57 -7 37 2 45 -1 45 -16 0
-44 9 -49 90 -49 67 0 77 2 77 18 0 35 4 39 32 40 l29 1 7 -107 c5 -79 13
-117 27 -144 12 -20 18 -46 15 -57 -6 -22 8 -29 16 -8 4 8 6 8 6 0 1 -8 190
-11 744 -10 408 0 713 2 677 4 l-65 4 -30 50 c-22 37 -31 46 -34 32 -5 -25
-16 -30 -51 -25 -40 6 -38 30 3 35 31 4 31 4 -6 5 l-37 2 2 43 3 43 125 -2
c69 0 134 2 145 7 19 7 19 8 -3 8 -14 1 -21 5 -16 12 3 6 15 9 25 6 10 -3 21
-2 24 2 4 7 -3 9 -45 13 -20 2 -30 38 -10 38 6 0 10 -4 10 -9 0 -5 14 -11 30
-13 20 -3 30 0 30 9 0 7 -6 14 -12 14 -7 1 -26 3 -43 5 -69 10 -91 9 -118 -3
-15 -8 -25 -18 -22 -22 6 -11 -19 -21 -51 -21 -17 0 -24 6 -24 20 0 13 7 20
20 20 11 0 20 -4 20 -10 0 -14 17 -12 23 3 3 8 -11 13 -47 15 -28 1 -46 -1
-41 -5 17 -14 15 -31 -5 -36 -19 -5 -20 0 -20 71 0 88 7 104 44 104 23 0 26 4
25 37 l-1 36 -8 -30 c-4 -16 -8 -23 -9 -15 -1 13 -2 13 -11 0 -8 -12 -10 -10
-11 10 l-1 25 -8 -25 c-5 -17 -8 3 -9 62 -1 48 2 89 7 91 4 3 6 30 4 59 l-4
55 -190 2 c-157 2 -193 5 -208 18 -11 9 -17 20 -14 24 6 11 378 -1 382 -12 5
-12 32 -11 32 1 0 11 71 13 108 4 23 -7 23 -7 20 -178 l-3 -171 118 3 117 4 0
-46 0 -46 -42 -1 c-30 -2 -35 -3 -15 -6 25 -4 40 -23 17 -23 -5 0 -10 -7 -10
-16 0 -13 3 -14 15 -4 19 16 23 5 28 -76 3 -34 8 -67 12 -74 5 -8 1 -18 -10
-26 -16 -12 -16 -14 4 -42 30 -43 27 -50 -26 -55 -27 -2 61 -4 194 -5 185 -2
243 1 246 11 4 10 6 10 6 0 1 -10 192 -13 921 -13 l920 0 0 25 c0 18 -5 25
-20 25 -42 0 -61 18 -59 57 3 39 -33 263 -42 263 -4 0 -8 24 -8 53 -1 28 -2
60 -3 71 -2 11 6 21 19 27 18 7 22 5 21 -9 -1 -9 0 -35 2 -57 l2 -40 8 40 c4
22 4 41 0 43 -4 2 -6 12 -3 23 3 11 -2 28 -13 40 -13 15 -15 22 -6 31 7 7 12
22 12 34 0 24 29 41 41 23 3 -6 15 -60 24 -120 10 -60 19 -109 21 -109 2 0 3
692 2 1538 -1 845 -4 1498 -5 1450 l-4 -88 -69 0 -70 0 -2 73 c-1 47 -3 56 -5
27 -2 -25 -6 -60 -8 -77 l-6 -33 -64 0 -64 0 -3 241 c-2 132 -1 242 2 244 3 2
56 6 118 9 112 6 112 6 112 -17 0 -19 5 -23 33 -22 l32 0 3 503 2 502 -92 1
c-132 2 -188 6 -195 13 -6 5 104 9 225 7 31 0 41 3 35 12 -4 7 0 7 10 -2 15
-12 17 -11 17 2 0 9 -8 18 -17 20 -17 4 -17 5 0 6 16 1 17 28 17 411 l0 410
-32 -1 c-24 -1 -27 -3 -10 -6 42 -8 24 -30 -30 -37 -111 -13 -358 -19 -358 -8
0 6 -3 17 -6 26 -5 14 10 16 134 16 l139 0 -5 25 -4 25 86 0 86 0 0 45 0 45
-4815 0 -4815 0 0 -1640z m4880 1447 c0 -23 -3 -24 -122 -30 -66 -4 -145 -7
-175 -7 -51 0 -54 2 -51 23 3 19 10 23 63 28 33 3 111 6 173 7 111 2 112 2
112 -21z m-520 -8 c90 -1 198 -14 148 -18 -10 0 -18 -5 -18 -10 0 -5 8 -12 18
-15 9 -3 -52 -3 -135 0 -135 5 -153 4 -153 -10 0 -12 -10 -16 -40 -16 -30 0
-38 3 -34 14 4 11 -4 16 -33 18 -30 2 -39 7 -41 25 -3 20 2 22 50 25 29 2 71
0 93 -4 22 -4 87 -8 145 -9z m3380 6 c0 7 24 9 73 4 89 -9 173 -17 256 -25 75
-7 100 -19 93 -46 -4 -17 -11 -19 -66 -14 -33 3 -124 11 -201 16 -172 13 -189
16 -181 36 3 9 6 23 6 32 0 15 2 15 10 2 5 -8 10 -10 10 -5z m-1119 -22 c0 -5
2 -22 4 -40 4 -30 3 -32 -35 -38 -22 -4 -45 -3 -51 1 -8 4 -9 3 -5 -4 4 -7 1
-12 -6 -12 -7 0 -24 -3 -38 -5 -22 -5 -22 -4 -5 4 17 8 17 10 3 10 -9 1 -21
-5 -25 -12 -4 -7 -57 -23 -116 -34 -101 -20 -110 -20 -128 -5 -40 34 -25 49
74 72 50 11 137 32 192 45 108 26 135 29 136 18z m-5269 -58 l-4 -35 -224 0
c-139 0 -224 4 -224 10 0 5 29 9 68 8 37 0 126 0 197 2 113 3 122 4 70 10 -33
4 -96 9 -140 10 -69 2 -75 3 -45 11 42 11 236 9 268 -2 16 -6 22 -5 22 6 0 8
4 15 8 15 4 0 6 -16 4 -35z m3506 29 c14 -3 22 -12 22 -25 0 -14 -6 -19 -22
-18 -61 5 -68 1 -68 -41 0 -23 -5 -40 -11 -40 -6 0 -9 7 -5 15 3 9 0 15 -9 15
-9 0 -12 -6 -9 -15 4 -9 0 -15 -10 -15 -9 0 -16 7 -16 15 0 8 -4 15 -10 15 -5
0 -10 -7 -10 -15 0 -8 -4 -15 -10 -15 -5 0 -10 7 -10 15 0 8 -7 15 -15 15 -8
0 -14 -5 -12 -12 1 -6 -6 -14 -15 -16 -13 -2 -16 1 -12 12 5 12 0 16 -19 16
-19 0 -26 6 -29 23 -3 19 -8 22 -41 20 -25 -2 -40 3 -44 12 -3 8 -9 12 -14 9
-5 -3 -9 -1 -9 5 0 9 70 19 175 24 123 5 182 6 203 1z m3914 -48 c2 -6 2 -145
0 -309 l-3 -298 -36 7 c-20 4 -45 7 -56 8 -18 1 -19 10 -17 170 0 93 3 173 5
177 10 15 54 -17 59 -43 8 -43 21 -33 23 17 2 48 4 46 -62 49 -22 1 -21 -1
-17 161 l2 76 50 -2 c27 -2 51 -7 52 -13z m126 -63 c2 -47 0 -63 -10 -63 -8 0
-9 -3 -3 -8 6 -4 9 -92 7 -239 l-3 -233 -30 0 c-36 0 -34 -12 -29 250 1 72 7
118 14 122 8 6 7 8 -1 8 -7 0 -13 11 -13 25 0 14 6 25 13 26 10 0 10 2 0 6 -9
3 -13 30 -13 83 0 81 5 91 45 87 17 -2 20 -10 23 -64z m-6282 -230 c-3 -158
-11 -292 -16 -297 -6 -6 -9 85 -9 239 0 165 -4 251 -11 255 -6 4 -8 14 -4 23
3 10 1 17 -5 17 -6 0 -11 4 -11 10 0 5 6 7 14 4 8 -3 16 3 19 15 3 12 11 21
18 21 9 0 11 -61 5 -287z m161 55 c-4 -128 -7 -268 -7 -310 0 -63 -3 -78 -15
-78 -13 0 -15 41 -15 310 l0 310 21 0 22 0 -6 -232z m1043 -78 c0 -286 -6
-356 -25 -283 -9 38 6 593 16 593 5 0 9 -139 9 -310z m1684 275 c4 -14 11 -23
16 -20 6 3 10 0 10 -7 0 -7 7 -80 15 -163 16 -166 17 -192 5 -155 -9 25 -5
-87 6 -182 4 -29 2 -48 -4 -48 -16 0 -20 18 -48 285 -21 202 -24 259 -14 265
9 6 9 12 1 29 -7 11 -8 21 -2 21 5 0 12 -11 15 -25z m-3794 -285 c0 -268 -1
-280 -19 -280 -15 0 -20 8 -22 38 -6 63 -2 490 4 506 4 9 13 16 22 16 13 0 15
-35 15 -280z m443 133 c-1 -82 -2 -210 -2 -285 -1 -131 -2 -138 -21 -138 -25
0 -27 30 -2 31 16 1 16 2 0 6 -19 5 -21 33 -20 343 0 198 -1 190 25 190 22 0
22 -1 20 -147z m937 -137 c1 -171 -2 -282 -8 -288 -17 -17 -41 33 -48 95 -8
71 5 349 16 342 4 -3 10 2 14 10 3 8 1 17 -4 20 -6 4 -10 1 -10 -6 0 -7 -3
-10 -6 -6 -3 3 -2 12 2 19 12 19 14 38 3 38 -5 0 -9 5 -9 11 0 5 4 7 10 4 5
-3 15 5 22 19 6 15 13 25 14 23 2 -2 4 -128 4 -281z m3440 269 c0 -12 13 -15
55 -15 47 0 55 -3 55 -19 0 -18 7 -19 93 -14 l94 4 6 -128 c4 -70 7 -185 7
-255 l0 -128 -39 0 c-37 0 -40 2 -49 38 l-10 37 -1 -37 c-1 -37 -2 -38 -41
-38 -29 0 -40 4 -40 15 0 8 -4 15 -10 15 -5 0 -10 -7 -10 -16 0 -12 -9 -14
-37 -12 -33 3 -39 7 -50 38 l-12 35 0 -38 c-1 -26 -5 -37 -13 -35 -17 6 -32
478 -16 493 7 7 9 2 6 -18 -3 -15 -1 -30 3 -33 5 -3 9 15 9 40 0 36 -3 44 -15
40 -11 -5 -15 1 -15 20 0 16 6 26 15 26 8 0 15 -7 15 -15z m768 -273 c1 -161
-2 -282 -7 -282 -16 0 -29 25 -31 60 -1 19 -2 141 -1 272 1 219 2 236 19 234
16 -3 17 -25 20 -284z m-2128 28 c5 -228 3 -270 -11 -234 -6 16 -8 15 -8 -8
-1 -16 -6 -28 -11 -28 -7 0 -10 83 -9 250 1 227 3 250 18 248 14 -3 17 -29 21
-228z m294 203 c5 -26 46 -451 46 -480 0 -7 -6 -13 -14 -13 -14 0 -27 87 -47
330 -13 151 -17 173 -29 165 -6 -3 -10 -2 -10 4 0 10 16 19 37 20 6 1 14 -11
17 -26z m2346 -244 c0 -212 -3 -270 -12 -267 -7 3 -15 21 -18 42 -3 20 -9 36
-14 35 -5 0 -12 5 -17 12 -4 7 -10 -6 -14 -34 -5 -35 -12 -47 -24 -46 -10 0
-11 2 -3 6 6 2 12 9 12 14 0 6 -5 7 -11 3 -9 -5 -10 1 -4 22 4 16 7 50 7 76 0
39 2 46 18 45 10 -1 16 -5 13 -10 -7 -12 18 -68 28 -61 5 3 6 11 2 17 -4 6 -5
28 -3 47 7 71 8 98 9 233 1 115 3 137 16 137 13 0 15 -37 15 -271z m-2451 156
c12 -83 41 -377 41 -407 0 -14 -9 -18 -43 -18 l-44 0 -12 193 c-7 105 -11 213
-10 238 1 25 -1 51 -6 59 -6 10 -2 12 19 8 14 -3 29 -1 32 4 9 15 12 7 23 -77z
m-1235 32 c3 -11 1 -27 -3 -36 -8 -17 -16 -205 -15 -348 l0 -83 -27 0 c-59 0
-57 -5 -59 208 0 108 -2 215 -3 237 l-2 40 52 1 c44 1 52 -2 57 -19z m-135
-156 c-1 -91 -5 -200 -9 -241 l-7 -75 -3 65 c-1 36 -6 115 -10 175 l-7 110 -3
-125 c-2 -69 -4 -145 -5 -170 -1 -32 -6 -45 -15 -45 -12 0 -14 30 -12 180 1
99 2 206 2 237 l0 57 35 -1 35 -1 -1 -166z m2729 -482 c2 -5 9 -6 14 -3 17 10
44 12 272 18 186 4 203 4 141 -7 -58 -10 -70 -15 -67 -29 4 -21 -5 -23 -173
-37 -190 -16 -215 -15 -215 8 0 24 -33 28 -253 35 -82 2 -151 7 -155 10 -3 3
4 6 16 6 12 0 22 5 22 11 0 14 393 2 398 -12z m-4078 -69 c0 -12 -7 -20 -17
-20 -30 0 -295 -19 -350 -26 -51 -5 -53 -5 -53 19 l0 25 183 9 c100 5 194 10
210 11 21 2 27 -2 27 -18z m792 -56 c-3 -31 -1 -45 5 -41 6 4 13 -12 17 -40 8
-61 5 -98 -4 -53 l-7 35 -2 -37 c0 -21 2 -38 7 -38 4 0 7 -67 7 -150 0 -94 4
-145 10 -139 5 5 17 9 27 9 15 0 17 7 13 43 -3 23 -10 123 -15 222 -6 99 -13
188 -16 198 -4 12 0 17 14 17 14 0 19 -6 17 -17 -3 -24 6 -38 15 -23 5 8 11
-14 14 -51 5 -62 20 -318 20 -370 1 -21 5 -25 23 -21 20 4 28 19 24 45 0 4 4
7 10 7 7 0 9 -10 7 -25 -3 -15 -1 -25 6 -25 12 0 12 27 0 156 -4 50 -3 88 3
99 8 13 13 -17 19 -116 4 -74 7 -138 5 -143 -1 -5 4 -4 13 3 10 8 16 9 21 1
13 -21 24 -10 15 16 -16 40 -13 427 3 422 6 -3 12 -10 12 -15 0 -6 3 -15 8
-19 4 -4 7 -78 7 -165 0 -134 2 -158 16 -163 11 -4 14 -14 9 -35 -6 -27 -4
-29 32 -32 l38 -4 -3 98 c-2 57 -7 95 -13 92 -5 -4 -9 1 -9 10 0 10 5 13 13 9
7 -5 6 0 -3 11 -9 11 -10 16 -2 11 8 -5 12 -1 12 13 0 11 -4 23 -10 26 -5 3
-10 14 -9 23 0 14 2 13 10 -3 7 -15 8 -8 6 27 -2 46 14 71 29 47 3 -5 5 -89 4
-186 l-1 -175 31 4 c16 3 30 1 30 -3 0 -4 20 -9 45 -11 43 -3 57 4 35 17 -8 5
-7 149 1 191 4 21 -2 26 -16 14 -8 -7 -15 -8 -15 -3 0 5 9 15 20 23 11 8 20
18 20 22 0 13 -28 9 -33 -4 -2 -7 -5 22 -6 65 -1 65 1 77 14 77 9 0 14 -4 10
-9 -3 -5 -1 -12 4 -15 5 -4 7 -21 5 -39 -4 -24 -2 -28 6 -17 5 8 10 29 10 45
0 52 12 115 21 115 5 0 10 -19 11 -42 l1 -43 4 43 c3 34 8 42 24 42 17 0 19
-8 21 -67 l2 -68 3 68 c2 37 8 67 13 67 6 0 10 -7 10 -16 0 -20 22 -42 38 -36
7 2 12 -5 12 -17 0 -12 6 -21 15 -21 8 0 15 -9 15 -20 0 -11 6 -19 13 -18 16
4 21 -63 12 -159 -5 -53 -11 -73 -21 -73 -9 0 -14 -11 -14 -31 0 -24 4 -30 15
-25 11 4 15 -1 15 -19 0 -18 -4 -23 -15 -19 -9 4 -15 0 -15 -8 0 -10 12 -15
34 -16 19 -1 38 -2 42 -3 5 -1 26 -1 46 0 l37 1 1 240 1 240 -36 0 c-19 0 -35
5 -35 11 0 8 25 10 87 5 88 -6 125 -16 60 -16 l-37 0 0 -112 c-1 -146 -10
-288 -21 -310 -17 -32 -11 -58 14 -58 18 0 22 6 24 33 1 17 9 86 17 152 9 66
18 149 21 185 3 35 10 69 15 74 14 14 13 -22 -10 -224 -27 -243 -31 -220 39
-220 33 0 63 -5 66 -10 5 -8 11 -7 21 1 8 6 25 8 39 5 l25 -6 0 130 0 130 -26
-10 c-44 -17 -46 -14 -38 63 3 39 8 73 9 75 2 2 29 0 60 -3 l57 -8 -3 -185
c-3 -140 -1 -186 8 -189 10 -4 13 43 15 199 3 195 4 203 23 203 16 0 21 8 23
38 2 20 7 37 13 37 5 0 9 -97 9 -240 l0 -240 24 0 c28 0 26 -17 25 258 0 130
3 192 10 192 6 0 11 9 11 20 0 11 7 20 15 20 14 0 16 -31 15 -242 l-1 -243 35
-3 c36 -3 36 -3 36 37 0 23 -4 41 -9 41 -5 0 -9 51 -10 113 -1 61 -4 129 -5
149 -3 30 2 44 24 69 23 27 30 30 41 19 11 -10 13 -54 11 -221 -4 -206 -4
-209 17 -209 18 0 21 6 23 53 0 28 2 63 3 77 2 14 3 94 4 179 1 130 3 152 16
148 8 -4 17 -2 20 3 4 6 -15 10 -44 10 -39 0 -51 4 -51 15 0 12 15 15 79 15
61 0 80 -3 85 -15 3 -8 16 -16 28 -16 l23 -2 -22 -4 c-29 -6 -32 -24 -36 -265
l-3 -198 82 0 c81 0 82 0 87 28 3 15 5 102 4 195 -1 92 1 167 6 167 4 0 8 -8
8 -17 1 -17 2 -17 6 0 2 9 11 17 19 17 8 0 14 10 14 22 0 12 3 19 6 16 3 -4 5
-101 5 -217 l-1 -211 24 0 c30 0 35 27 30 175 -2 61 -1 134 2 163 6 49 8 52
35 52 l29 0 0 -195 0 -195 30 0 c28 0 30 2 28 34 -1 25 -6 32 -18 29 -15 -4
-17 5 -18 62 -1 36 -4 70 -7 75 -9 15 15 23 30 10 12 -10 15 -9 15 3 0 9 -10
17 -22 19 -27 4 -31 26 -9 51 13 16 13 17 -3 11 -16 -6 -17 -3 -11 17 4 13 13
27 19 31 7 5 6 8 -4 8 -10 0 -16 10 -17 28 0 15 1 19 4 10 6 -25 23 -22 25 5
1 12 4 -9 8 -48 l6 -70 2 73 c1 51 -2 72 -10 73 -10 0 -10 2 0 6 6 2 12 11 12
19 0 16 18 18 39 5 11 -7 12 -48 6 -233 l-7 -224 43 -1 c33 -1 39 1 23 7 -15
6 -23 19 -26 45 -2 20 -1 38 2 40 4 2 4 23 2 47 -2 24 -4 55 -4 71 0 15 -5 27
-12 27 -6 0 -4 5 4 10 8 5 10 10 3 10 -7 0 -11 20 -11 56 1 47 4 57 22 64 15
6 17 9 5 9 -16 1 -32 54 -21 66 3 3 26 5 50 5 l45 0 -6 -229 -7 -230 22 -3
c17 -2 24 -11 26 -33 1 -17 -1 -25 -5 -19 -6 8 -146 12 -483 13 -261 0 -536 3
-610 6 -145 5 -681 15 -1027 18 -116 1 -209 -1 -207 -5 3 -5 0 -8 -5 -8 -6 0
-11 5 -11 11 0 8 -5 8 -15 -1 -12 -10 -15 -9 -15 6 0 17 -1 17 -15 -2 -11 -14
-14 -15 -15 -4 0 13 -1 13 -10 0 -6 -9 -10 -10 -10 -3 0 6 -9 10 -20 8 -11 -2
-20 1 -20 6 0 6 -5 7 -12 3 -7 -4 -8 -3 -4 4 4 7 3 12 -2 12 -5 0 -12 62 -16
138 -4 75 -9 172 -13 215 -5 65 -3 77 10 77 19 0 24 -40 33 -257 6 -166 7
-172 29 -177 12 -3 35 -2 52 3 19 6 35 5 41 -1 6 -6 12 -6 16 1 4 6 3 11 -2
11 -8 0 -21 124 -38 379 -6 84 -5 96 11 108 29 21 33 16 27 -33z m4848 34
c167 -3 175 -4 175 -23 0 -22 25 -21 -307 -16 -116 1 -118 1 -118 24 0 20 4
22 38 20 20 -2 116 -4 212 -5z m-7141 -29 c12 -12 20 -23 17 -26 -3 -3 -35 -5
-71 -4 -61 2 -65 0 -65 -21 -1 -13 0 -121 0 -240 1 -207 0 -218 -18 -218 -18
0 -20 14 -27 213 -4 116 -7 224 -6 240 1 24 -2 27 -33 27 -21 0 -36 6 -40 15
-4 13 7 15 70 15 48 0 73 4 69 10 -4 6 11 10 38 10 30 0 50 -6 66 -21z m1581
12 c0 -5 20 -6 45 -3 37 4 45 2 45 -12 0 -9 -7 -16 -15 -16 -14 0 -20 -17 -16
-47 1 -6 -3 -14 -9 -18 -6 -4 -9 -3 -8 2 2 4 -1 10 -7 13 -8 5 -10 -15 -6 -62
0 -10 8 -18 17 -18 13 0 13 -2 2 -14 -19 -18 -11 -86 9 -86 13 0 14 -12 10
-67 -3 -38 -2 -54 1 -38 6 25 9 27 15 12 10 -27 9 -57 -3 -57 -5 0 -10 -10 -9
-22 0 -21 1 -22 8 -4 7 18 8 18 14 -5 9 -34 9 -41 -3 -34 -5 3 -10 0 -10 -7
-1 -39 -19 30 -34 132 -9 63 -21 135 -26 160 -5 25 -12 61 -15 80 -10 69 -16
95 -27 107 -8 10 -6 13 6 13 9 0 16 -4 16 -9z m3960 -7 c188 -16 217 -20 207
-30 -5 -5 -155 9 -234 21 -31 6 -31 5 -27 -32 2 -21 5 -129 8 -241 4 -187 3
-203 -12 -200 -20 4 -20 8 -21 222 -1 82 -3 147 -6 145 -2 -3 -5 -76 -6 -162
0 -87 -5 -157 -10 -157 -5 0 -9 8 -9 18 -1 72 -13 298 -16 301 -2 2 -4 -56 -4
-129 0 -73 -2 -131 -4 -129 -2 2 -7 64 -10 137 -5 114 -4 132 9 132 11 0 15
12 15 50 l0 50 -50 0 c-27 0 -50 5 -50 10 0 13 4 13 220 -6z m406 1 c9 -8 11
-15 5 -15 -10 0 -8 -34 4 -62 4 -10 5 -25 1 -33 -3 -8 0 -14 6 -12 6 1 12 -9
13 -23 10 -169 8 -164 15 -60 5 73 6 53 6 -90 0 -138 -1 -162 -6 -95 l-6 90
-2 -89 c-1 -49 -5 -86 -9 -82 -8 8 -10 23 -12 121 0 30 -5 55 -10 55 -5 0 -9
-39 -8 -87 l2 -88 -34 -3 c-19 -2 -37 2 -41 9 -10 15 -24 454 -16 468 10 16
75 13 92 -4z m-672 -165 c0 -134 -4 -233 -13 -313 -1 -5 -20 -7 -43 -5 l-43 3
-3 230 c-1 126 0 236 3 243 3 9 20 12 52 10 l48 -3 -1 -165z m2331 155 c11 -9
15 -14 8 -11 -6 4 -14 2 -18 -4 -3 -5 3 -10 14 -10 12 0 21 7 21 15 0 12 19
15 110 15 l110 0 0 -25 0 -25 -194 0 c-106 0 -214 3 -240 6 -39 6 -46 10 -46
29 0 22 3 23 108 24 85 1 111 -2 127 -14z m-2783 -15 c-3 -8 -9 -20 -14 -27
-5 -6 -7 -33 -5 -60 l3 -48 2 53 c1 28 7 52 12 52 6 0 10 -7 10 -15 0 -8 5
-15 10 -15 6 0 10 -9 10 -21 0 -11 5 -17 10 -14 6 3 13 -1 16 -9 3 -9 12 -16
20 -16 10 0 14 -13 14 -45 0 -33 -4 -45 -15 -45 -12 0 -15 -16 -15 -84 0 -47
5 -88 10 -91 6 -3 10 -22 10 -41 0 -31 -2 -34 -31 -34 -16 0 -28 4 -24 9 3 5
1 12 -5 16 -5 3 -10 -1 -10 -9 0 -9 -4 -16 -9 -16 -21 0 -41 13 -41 27 0 8 5
11 10 8 6 -3 10 1 10 9 0 9 -5 16 -10 16 -7 0 -7 6 -1 18 5 9 10 38 11 62 3
64 1 72 -10 65 -6 -4 -10 43 -10 134 l0 141 24 -2 c17 -2 22 -7 18 -18z m1526
-228 c2 -184 0 -212 -13 -212 -13 0 -15 23 -16 153 l-2 152 -8 -105 c-13 -158
-17 -152 -18 33 -1 172 4 200 39 194 13 -2 15 -35 18 -215z m-6641 188 c15
-13 23 -16 26 -7 4 12 17 -280 17 -385 0 -55 -1 -58 -25 -58 -24 0 -25 3 -25
58 0 143 -14 387 -21 390 -11 5 -12 22 -1 22 5 0 18 -9 29 -20z m4973 -108 c0
-66 -3 -160 -6 -210 -6 -83 -9 -92 -27 -92 -20 0 -20 5 -14 193 4 105 7 200 7
210 0 10 8 17 20 17 19 0 20 -7 20 -118z m-2587 16 c14 -132 20 -319 11 -317
-27 5 -55 -2 -48 -13 4 -6 3 -9 -2 -6 -5 4 -6 44 -3 90 3 45 2 92 -2 103 -3
11 -10 62 -14 113 l-7 92 30 0 c29 0 29 -1 35 -62z m6196 -168 c2 -179 2 -180
-20 -180 -21 0 -22 3 -15 61 9 92 2 109 -45 109 l-39 0 0 60 c0 64 1 65 57 60
18 -1 23 6 29 34 3 20 12 36 19 36 10 0 13 -42 14 -180z m-1681 -336 c15 -4
22 -14 22 -31 0 -20 -4 -23 -20 -18 -13 4 -20 2 -20 -7 0 -10 -3 -9 -10 2 -8
12 -10 11 -10 -7 0 -14 6 -23 15 -23 13 0 15 -21 15 -129 0 -81 -4 -132 -11
-136 -6 -4 -13 2 -16 14 -3 11 -9 18 -14 15 -10 -6 -13 285 -3 310 7 17 17 19
52 10z m-3984 -36 c3 -7 7 -26 11 -41 5 -24 8 -27 20 -17 8 7 16 20 16 29 1 9
5 3 9 -14 4 -16 9 -147 10 -290 2 -189 5 -245 11 -205 5 30 6 144 4 254 -3
109 -3 207 0 217 8 25 35 24 37 -1 5 -67 6 -122 7 -312 1 -116 3 -209 6 -206
3 2 6 120 8 261 1 178 6 260 14 268 11 11 16 -122 18 -468 l0 -62 95 -1 c139
-2 174 0 181 11 4 7 9 4 12 -5 5 -11 19 -16 50 -16 l44 0 -3 43 c-1 23 -4 53
-5 67 -1 14 -1 45 1 70 2 32 6 13 14 -65 l11 -110 64 -3 c35 -2 67 1 71 5 5 4
11 24 15 43 4 26 3 31 -4 20 -8 -12 -11 -7 -12 20 -1 48 -7 108 -13 150 -19
128 -19 158 3 181 l21 23 1 -55 c4 -140 6 -164 24 -274 1 -5 3 -25 3 -44 1
-19 5 -32 8 -28 4 3 0 75 -7 159 -17 186 -17 174 -1 170 15 -3 16 37 1 58 -9
13 -10 12 -5 -2 3 -10 1 -20 -3 -22 -8 -5 -21 96 -21 167 0 48 27 52 34 5 13
-85 16 -218 6 -218 -12 0 -4 -41 10 -50 8 -6 30 -192 30 -260 0 -36 4 -50 14
-50 15 0 14 15 -5 188 -6 52 -9 96 -6 98 2 3 12 -48 21 -113 10 -65 20 -130
22 -145 l5 -27 557 6 c592 7 602 6 602 -40 l0 -22 -1023 1 c-1489 1 -2180 4
-2175 9 2 2 67 7 144 10 222 9 239 23 29 25 -99 1 -196 3 -215 5 -19 1 -174 4
-345 4 -211 2 -304 5 -292 12 9 6 21 8 26 5 13 -8 20 16 14 47 -3 15 -1 27 4
27 5 0 10 24 11 53 1 28 3 63 6 77 2 14 4 85 5 158 1 86 5 131 11 127 6 -3 10
-17 10 -31 0 -17 6 -24 19 -24 18 0 19 -8 14 -222 -3 -129 -2 -219 3 -215 12
11 11 0 13 232 l1 205 33 -4 32 -3 -4 -217 c-4 -215 -4 -216 18 -216 20 0 21
5 22 113 1 167 17 180 20 17 l3 -135 6 100 6 100 5 -90 c4 -49 4 10 2 131 -3
125 -1 224 4 227 5 3 8 -20 7 -51 -1 -40 0 -44 3 -13 4 44 21 71 45 71 10 0
12 -18 6 -87 -3 -49 -7 -141 -7 -205 -1 -111 -2 -118 -21 -118 -26 0 -26 -27
0 -35 11 -3 20 -11 20 -16 0 -5 8 -9 18 -9 18 0 19 15 25 226 3 124 7 228 10
231 3 2 15 2 26 -2 20 -6 21 -13 21 -149 0 -79 -3 -178 -6 -220 -6 -68 -9 -76
-25 -71 -11 4 -19 2 -19 -4 0 -7 25 -11 63 -11 l64 0 6 128 c4 70 7 153 7 185
0 50 2 57 20 57 11 0 21 6 22 13 0 6 4 -8 8 -33 6 -40 7 -36 8 33 2 64 5 77
19 77 15 0 16 -20 10 -230 l-6 -230 37 1 c20 0 31 3 23 6 -8 3 -9 8 -4 12 9 6
23 221 23 369 0 48 3 62 15 62 10 0 16 -12 17 -37 l1 -38 4 38 c2 20 8 37 14
37 5 0 9 -93 9 -230 l0 -230 65 0 65 0 0 85 c0 55 4 85 11 85 7 0 10 -28 8
-82 l-4 -83 47 -3 c44 -3 46 -2 53 28 8 35 25 31 25 -6 0 -22 3 -24 54 -24 49
0 54 2 60 25 8 33 26 32 26 -1 l0 -27 88 6 c48 4 88 7 90 7 1 0 2 4 2 10 0 5
-8 7 -17 4 -15 -5 -16 -4 -3 5 25 18 42 13 35 -9 -6 -18 -2 -20 45 -20 l52 0
-4 284 c-1 156 0 282 5 279 4 -2 7 -130 7 -284 l0 -279 29 0 c39 0 61 9 61 26
0 8 5 14 11 14 6 0 9 -6 6 -14 -8 -21 10 -24 91 -18 l72 5 0 268 c0 276 6 323
38 317 17 -3 28 -58 11 -58 -4 0 -8 -119 -8 -265 -2 -248 -1 -265 16 -265 17
0 18 18 18 292 l0 292 25 7 c37 10 40 10 44 -3z m3865 -225 c-2 -255 -7 -353
-20 -353 -14 0 -11 554 3 568 7 7 13 12 15 12 2 0 3 -102 2 -227z m441 177 c0
-89 -22 -535 -26 -540 -14 -13 -23 33 -19 95 3 39 8 163 11 278 5 167 9 207
20 207 10 0 14 -13 14 -40z m-4850 22 c18 -2 20 -9 20 -77 0 -43 -4 -75 -10
-75 -5 0 -10 11 -10 24 0 19 -5 24 -25 22 -22 -1 -25 -5 -23 -36 1 -19 6 -38
11 -41 5 -4 -2 -15 -17 -24 -15 -10 -29 -15 -32 -12 -3 3 -3 55 1 115 l7 109
29 -2 c16 -1 38 -2 49 -3z m2551 -24 c1 -17 2 -19 6 -5 7 28 33 20 33 -10 1
-16 3 -68 6 -118 4 -49 3 -87 0 -84 -3 3 -7 25 -8 50 -1 24 -3 38 -6 31 -2 -7
-9 -9 -15 -6 -9 5 -9 4 -2 -5 13 -13 7 -81 -7 -81 -10 0 -9 -118 1 -135 3 -5
9 4 12 20 6 28 7 28 9 -10 1 -22 2 -55 3 -73 1 -19 -3 -32 -10 -32 -18 0 -27
-21 -12 -30 7 -5 17 -6 21 -4 4 3 8 -1 8 -9 0 -14 -20 -27 -40 -27 -5 0 -8 8
-8 18 2 29 -22 395 -28 430 -3 18 -9 30 -13 27 -5 -2 -8 7 -8 20 0 14 3 25 8
25 5 0 9 7 9 15 0 25 40 18 41 -7z m1412 -160 c4 -95 7 -219 7 -276 0 -92 -2
-103 -17 -100 -17 3 -18 26 -23 268 -3 146 -4 268 -2 273 2 4 9 7 16 7 10 0
14 -42 19 -172z m-4318 145 c12 -10 18 -33 8 -34 -43 -4 -69 -12 -75 -22 -4
-7 -8 -67 -8 -134 0 -75 -4 -123 -10 -123 -8 0 -16 103 -11 134 1 5 3 38 5 72
l2 64 -158 0 c-150 0 -158 1 -158 19 0 17 7 20 51 19 28 0 52 2 55 5 8 8 289
8 299 0z m3089 -90 c4 -54 14 -165 22 -247 17 -182 17 -176 -1 -176 -19 0 -20
8 -45 256 -25 262 -25 264 -1 264 16 0 19 -11 25 -97z m-2284 -840 c0 -7 7
-13 15 -13 8 0 15 -4 15 -10 0 -5 -5 -9 -12 -7 -6 1 -14 -9 -18 -23 -7 -25 -7
-25 -12 5 -8 46 -9 -139 -1 -258 5 -94 8 -107 24 -107 27 0 32 16 32 104 1 45
2 69 4 54 3 -16 8 -28 12 -28 4 0 5 -16 3 -35 -3 -21 0 -35 7 -35 6 0 12 -15
13 -32 l1 -33 4 33 c2 18 9 30 14 27 5 -4 6 -17 3 -31 -5 -20 -2 -24 15 -24
12 0 21 5 21 11 0 5 3 8 8 6 4 -3 7 41 7 98 0 57 -3 98 -7 92 -4 -6 -5 31 -2
82 4 68 2 91 -6 86 -6 -4 -15 -17 -20 -29 -7 -17 -9 -15 -9 17 -1 27 3 37 15
37 9 0 12 5 8 12 -4 7 -3 8 5 4 6 -4 8 -12 5 -18 -5 -8 -1 -9 11 -5 22 9 285
10 293 2 4 -3 0 -10 -8 -15 -9 -6 -17 -5 -22 3 -4 6 -10 8 -14 4 -9 -9 -28
-366 -20 -374 16 -16 21 21 26 172 3 91 9 168 14 172 18 19 24 -33 21 -186 -3
-128 -2 -148 5 -86 4 44 9 134 10 200 l2 120 416 -5 417 -5 2 -25 c6 -54 45
-296 51 -313 4 -10 6 23 5 73 -2 49 -4 130 -5 179 l-3 89 145 5 c80 3 193 6
252 7 l106 1 -5 -196 -5 -195 41 0 c40 0 57 15 25 22 -13 3 -13 6 4 23 10 11
17 26 15 32 -2 6 1 14 6 18 7 4 10 -8 9 -33 -2 -55 6 -63 54 -57 23 3 50 3 60
-1 22 -7 48 -54 47 -86 0 -13 -2 -18 -5 -13 -3 7 -338 9 -986 7 -541 -1 -993
0 -1005 3 -12 3 -24 15 -26 28 -4 21 -4 20 -6 -3 l-1 -25 -493 1 c-270 1 -718
5 -994 9 l-503 7 -1 27 -2 26 -4 -28 -4 -27 -357 2 c-294 3 -356 5 -354 17 2
10 -8 12 -42 9 -55 -4 -47 9 9 15 22 2 -55 3 -171 3 -155 -1 -211 2 -211 10 0
9 43 12 158 10 93 0 155 3 152 8 -4 5 0 6 8 0 21 -13 49 -15 49 -3 0 6 5 7 13
2 17 -11 31 -10 39 2 5 7 8 6 8 -1 0 -9 32 -12 50 -4 3 1 19 3 35 3 26 2 31 7
36 37 l6 35 2 -35 1 -35 316 2 c174 1 318 4 321 7 3 2 4 90 3 195 -1 166 1
191 15 191 12 0 15 -14 15 -77 0 -129 21 -303 36 -303 10 0 14 13 14 41 l0 41
66 -5 c56 -5 63 -3 53 9 -9 11 -8 14 2 14 8 1 49 3 92 6 66 5 77 3 77 -10 0
-17 -6 -18 -95 -16 -33 1 -57 -1 -53 -5 3 -3 60 -6 127 -6 107 0 120 -2 119
-17 -4 -57 0 -62 50 -62 l47 0 0 143 c0 207 0 207 41 205 32 -1 34 -4 34 -35
0 -20 -4 -32 -10 -28 -5 3 -10 0 -10 -7 0 -9 -3 -9 -10 2 -8 13 -10 13 -10 -2
0 -13 8 -16 35 -15 35 2 44 10 25 22 -5 3 -10 16 -10 27 0 20 1 21 20 3 22
-20 28 -8 8 14 -11 11 -10 12 0 7 7 -4 18 -4 25 1 17 13 429 -15 438 -29 4 -6
6 -36 5 -67 l-1 -56 -57 -27 c-64 -30 -69 -37 -78 -93 -4 -22 -9 -47 -11 -55
-3 -13 24 -17 171 -27 220 -14 334 -15 303 -3 -13 5 -23 14 -23 19 0 13 81
365 85 369 2 2 20 -1 42 -7 25 -7 39 -7 41 -1 4 12 122 14 122 3 0 -5 -5 -15
-10 -23 -9 -13 -12 -13 -21 3 -5 9 -17 17 -24 17 -13 0 -15 -30 -13 -192 l2
-193 3 166 3 167 25 4 24 5 -2 -171 -2 -171 38 -3 c25 -2 37 1 37 10 0 64 12
395 15 403 4 15 45 13 45 -2z m-1762 -15 c9 -9 12 -9 12 2 0 10 4 9 18 -3 10
-10 22 -14 25 -10 4 3 16 -2 27 -12 11 -10 23 -15 26 -12 16 16 34 -27 40 -97
6 -65 9 -76 25 -76 11 0 19 6 19 13 0 9 2 9 8 0 5 -8 41 -13 95 -15 61 -2 87
-7 87 -15 0 -10 -47 -13 -200 -13 -183 0 -222 5 -190 25 6 4 7 13 1 23 -12 23
-24 202 -13 202 4 0 13 -5 20 -12z m3858 -353 c4 -8 10 -12 15 -9 5 3 7 10 4
15 -4 5 -1 9 4 9 6 0 11 -7 11 -15 0 -12 14 -15 68 -16 143 -1 774 -15 815
-18 10 0 16 -5 13 -10 -3 -5 -47 -7 -98 -6 -51 2 -244 3 -428 4 -360 2 -398 5
-408 30 -3 9 -10 19 -16 23 -7 5 -7 8 2 8 7 0 15 -7 18 -15z m-2726 -197 c0
-7 -3 -30 -6 -50 -7 -38 -7 -38 -55 -38 -51 0 -70 -19 -21 -21 15 0 36 -4 47
-9 16 -7 12 -9 -20 -10 -36 -2 -38 -3 -15 -11 18 -6 14 -7 -15 -2 -22 3 -48 6
-57 7 -14 0 -17 9 -16 48 1 44 3 48 24 48 13 0 24 -4 24 -9 0 -17 25 -19 40
-3 12 14 11 15 -8 10 -12 -4 -22 -2 -22 3 0 5 -11 9 -25 9 -18 0 -25 5 -25 20
0 18 7 20 75 20 53 0 75 -4 75 -12z m5031 -175 c1 -71 2 -141 1 -157 0 -21 2
-25 9 -15 6 9 8 -5 8 -41 -2 -50 -2 -52 -9 -20 -5 23 -8 -3 -8 -80 0 -133 -7
-170 -31 -170 -24 0 -40 35 -44 95 -3 39 -4 34 -5 -22 l-2 -73 -33 0 -34 0 -6
122 c-4 66 -7 201 -7 300 l0 178 35 0 34 0 4 -92 3 -93 2 98 2 97 40 0 40 0 1
-127z m-481 52 c0 -9 -16 -111 -36 -228 -29 -178 -38 -240 -43 -309 -1 -11
-51 -10 -51 1 0 5 6 12 13 14 7 4 3 8 -10 12 -20 6 -22 12 -18 44 52 357 66
426 92 453 29 31 53 36 53 13z m-5043 -235 c6 -85 12 -174 12 -197 l1 -43 -49
0 -48 0 -7 121 c-7 123 -2 149 30 149 7 0 18 9 24 20 6 12 7 20 1 20 -5 0 -7
9 -4 20 4 15 0 20 -16 20 -11 0 -23 -1 -26 -2 -2 -2 -11 6 -19 17 -18 25 -6
33 48 31 l41 -1 12 -155z m6811 103 c6 -27 14 -81 18 -120 6 -70 6 -73 -15
-73 -12 0 -20 4 -16 9 3 5 1 13 -5 16 -6 4 -9 1 -8 -7 2 -9 -13 -14 -54 -16
-32 -2 -58 1 -58 5 0 14 -19 176 -25 206 l-4 27 77 0 78 0 12 -47z m-8438 23
c0 -2 3 -11 6 -19 3 -10 -2 -17 -13 -20 -12 -3 -9 -5 10 -6 18 -1 27 -7 28
-18 1 -10 3 -31 5 -46 2 -17 -2 -27 -9 -26 -7 1 -27 1 -44 0 l-33 -1 -2 -82
c-1 -53 -3 -66 -5 -36 -3 36 -7 46 -19 41 -10 -4 -14 3 -14 25 0 21 -6 31 -20
35 -17 4 -20 14 -20 62 l0 57 31 -7 c23 -5 29 -4 24 4 -14 23 4 41 40 41 19 0
35 -2 35 -4z m223 -10 c15 -8 27 -11 27 -5 0 5 7 9 15 9 8 0 15 -6 15 -14 0
-9 12 -14 34 -14 48 0 52 -4 48 -56 -4 -41 -7 -46 -28 -46 -22 0 -24 4 -24 45
0 46 -4 51 -30 35 -11 -7 -17 -5 -22 8 -5 14 -7 13 -7 -5 -1 -13 -5 -23 -11
-23 -5 0 -10 -13 -10 -30 0 -21 -4 -28 -14 -24 -9 4 -13 20 -12 50 1 43 0 44
-29 43 -24 -1 -25 -3 -7 -6 19 -4 22 -11 22 -49 0 -45 -7 -53 -29 -31 -10 10
-12 3 -10 -34 2 -44 -5 -69 -20 -69 -9 0 -11 30 -3 50 11 28 9 50 -4 50 -10 0
-14 -14 -14 -47 -1 -38 -3 -44 -11 -30 -5 9 -19 17 -31 17 -19 0 -20 4 -13 68
4 37 10 69 15 72 4 3 10 12 13 20 5 13 6 13 6 -1 1 -24 32 -19 42 8 10 27 49
31 92 9z m6282 -43 c-4 -32 -11 -82 -16 -112 -5 -30 -9 -62 -9 -70 0 -14 1
-14 10 -1 7 10 8 -6 4 -50 -8 -92 -13 -115 -25 -103 -6 6 -6 25 0 54 6 24 10
53 10 64 -1 26 -28 -91 -30 -130 -1 -16 -5 -32 -10 -35 -4 -3 -36 -3 -71 0
-50 4 -64 9 -66 23 -2 9 18 106 45 215 26 109 49 185 51 170 5 -43 33 -44 65
-4 41 51 50 46 42 -21z m1098 -75 c4 -62 7 -146 7 -185 0 -71 -1 -73 -25 -73
-14 0 -28 6 -30 13 -7 16 -23 340 -18 350 2 4 17 7 32 7 l28 0 6 -112z m-2583
64 c0 -10 6 -12 18 -7 9 4 27 10 40 12 18 5 22 1 22 -21 0 -14 5 -26 10 -26 6
0 11 -8 11 -17 1 -16 2 -16 6 0 3 14 12 18 28 14 15 -2 26 1 29 9 6 15 36 20
36 6 0 -4 9 -9 20 -10 11 -1 26 -2 33 -3 6 -1 24 2 40 6 34 9 35 -1 6 -103
-11 -40 -18 -76 -15 -80 3 -3 6 2 6 11 0 9 4 17 10 17 5 0 9 8 7 18 -1 9 5 38
13 65 14 47 45 71 60 47 5 -8 9 -7 13 4 7 16 47 23 47 7 0 -4 -13 -40 -29 -78
-16 -39 -39 -99 -51 -134 -27 -76 -23 -71 -43 -63 -14 5 -12 16 15 90 16 47
28 87 25 90 -2 3 -20 -37 -38 -89 -30 -85 -36 -94 -56 -92 -13 1 -26 -2 -29
-6 -3 -5 9 -9 25 -9 19 0 31 -5 31 -13 0 -10 -16 -14 -55 -16 -54 -1 -70 9
-40 26 13 7 12 11 -5 26 -19 16 -20 16 -21 -1 -1 -9 -1 -24 0 -33 2 -15 -13
-17 -119 -16 -123 0 -157 9 -98 25 l33 9 -27 8 c-17 4 -28 14 -28 25 0 11 -12
21 -32 27 -18 5 -32 14 -31 20 14 69 54 237 59 244 3 5 10 7 15 4 5 -4 12 0
15 9 7 18 44 17 44 -2z m559 -191 c-29 -75 -57 -140 -63 -144 -8 -6 -7 -10 2
-14 19 -8 14 -23 -8 -23 -18 0 -26 20 -21 52 0 4 -6 5 -14 2 -11 -5 -14 -1
-10 12 4 12 1 11 -6 -3 -14 -27 -22 -28 -43 -7 -15 14 -16 14 -16 0 0 -9 -7
-16 -15 -16 -17 0 -19 11 -6 26 9 10 70 168 76 196 7 33 31 73 43 71 7 -2 12
1 12 6 0 5 11 11 26 14 23 4 25 3 18 -27 -3 -17 -10 -35 -14 -41 -6 -8 -38
-98 -45 -125 -1 -3 -5 -12 -9 -21 -4 -8 -3 -26 2 -38 7 -20 13 -12 40 64 18
48 29 92 25 98 -3 5 -2 7 4 4 6 -4 15 11 22 33 6 21 19 47 29 56 16 17 17 16
20 -11 2 -17 -17 -82 -49 -164z m231 165 c0 -9 12 -16 28 -18 19 -2 27 -8 26
-21 -2 -15 1 -16 15 -5 9 7 21 19 27 27 17 21 26 -2 14 -35 -6 -15 -9 -28 -7
-31 2 -2 12 17 21 42 10 25 24 45 32 45 10 0 11 -6 3 -26 -5 -15 -7 -29 -5
-32 3 -2 8 7 11 21 4 14 13 28 20 31 30 11 23 -36 -20 -159 -25 -70 -44 -129
-42 -131 2 -2 18 35 36 84 55 149 73 192 80 193 40 5 71 2 71 -6 0 -5 -16 -71
-35 -145 -19 -74 -35 -145 -35 -157 0 -12 -6 -23 -12 -26 -22 -7 -48 4 -48 20
0 12 3 13 14 4 10 -9 16 -8 26 4 13 15 5 20 -27 16 -7 -1 -13 6 -13 16 0 15
-2 16 -10 3 -5 -8 -10 -25 -10 -37 0 -16 -4 -21 -15 -17 -8 4 -15 12 -15 20 0
8 -7 14 -16 14 -11 0 -14 6 -9 20 3 11 2 20 -3 20 -12 0 -22 -24 -22 -51 0
-11 -5 -17 -10 -14 -6 4 -8 11 -5 16 4 5 1 9 -5 9 -7 0 -9 -8 -5 -20 6 -18 2
-20 -35 -20 -33 0 -43 4 -47 19 -3 11 -12 22 -20 25 -12 5 -14 1 -11 -19 l5
-25 -88 0 c-53 0 -89 4 -89 10 0 6 12 10 27 10 40 0 14 21 -28 22 -19 1 -28 3
-21 5 6 3 10 9 6 14 -3 5 -1 9 5 9 6 0 8 7 5 15 -3 8 3 34 14 57 12 24 26 64
33 91 6 26 16 47 21 47 6 0 8 6 5 14 -10 26 44 68 58 45 4 -5 15 -3 28 6 28
19 77 20 77 1z m-3758 -474 l-5 -25 -135 7 c-74 3 -159 6 -189 6 -47 0 -53 2
-53 21 0 20 4 20 193 18 l194 -2 -5 -25z m858 -109 l0 -26 -142 6 c-79 4 -167
7 -195 7 -46 0 -53 3 -53 20 0 19 7 20 195 20 l195 0 0 -27z m-1030 -42 c0 -4
19 -5 43 -1 23 5 43 8 44 7 0 -1 6 -60 13 -132 6 -71 15 -161 19 -198 4 -38 4
-70 0 -73 -5 -2 -60 -4 -123 -2 l-116 2 -5 31 c-7 45 -35 314 -35 341 0 22 3
23 66 23 36 -1 68 2 71 5 9 9 23 7 23 -3z m-218 -47 c4 -16 23 -87 42 -159 50
-185 51 -192 29 -198 -71 -20 -72 -19 -82 20 -15 56 -28 120 -41 193 -6 36
-16 85 -21 109 -11 49 -12 47 21 60 34 13 44 9 52 -25z m1196 0 c49 -6 52 -8
52 -35 l0 -29 -88 0 c-49 0 -137 3 -195 7 l-107 6 0 29 0 28 143 0 c78 0 166
-3 195 -6z m2870 -392 c7 -5 14 -29 17 -55 l5 -47 -128 0 c-70 0 -133 4 -139
8 -7 5 -16 29 -19 54 l-6 46 128 1 c71 1 135 -3 142 -7z m-556 -182 c36 0 38
-2 38 -30 l0 -30 -145 0 -145 0 0 37 0 36 107 -6 c58 -4 123 -7 145 -7z m1688
-89 c5 -11 10 -39 10 -63 l0 -44 40 4 40 4 2 -38 c1 -37 1 -38 5 -6 2 17 10
32 16 32 9 0 12 -31 12 -105 0 -58 -2 -105 -4 -105 -2 0 -10 8 -17 18 -13 16
-14 16 -8 -1 4 -12 2 -17 -7 -15 -8 2 -13 -3 -11 -10 1 -7 -9 -17 -23 -22 -21
-8 -25 -16 -25 -51 0 -48 11 -48 12 -1 1 34 26 48 46 26 16 -18 15 -27 -3 -20
-11 4 -15 -1 -15 -19 0 -17 6 -25 17 -25 14 0 13 -3 -5 -23 -24 -25 -28 -37
-12 -37 6 0 10 7 10 16 0 14 3 14 15 4 10 -8 15 -30 15 -61 0 -48 -1 -49 -30
-49 -28 0 -30 2 -30 39 0 22 -4 42 -8 45 -5 3 -7 -19 -4 -48 4 -51 3 -53 -22
-58 -15 -3 -26 -1 -26 6 0 6 -7 119 -15 251 -23 374 -23 375 -3 375 10 0 22
-9 28 -19z m1681 -111 c0 -66 6 -121 12 -128 11 -14 27 -329 19 -365 -2 -9
-10 -17 -17 -17 -8 0 -14 30 -18 97 -8 110 -9 539 -3 532 3 -3 6 -56 7 -119z
m-29 8 c3 -57 5 -196 7 -310 1 -174 -1 -208 -13 -208 -20 0 -24 42 -25 348 -1
230 1 272 13 272 11 0 15 -22 18 -102z m-404 55 c-2 -12 3 -18 15 -17 16 2 17
-17 17 -272 l0 -274 -25 0 -25 0 0 283 c0 156 3 287 7 290 11 11 14 8 11 -10z
m-758 -27 c0 -8 4 -16 9 -18 6 -2 12 -92 15 -203 6 -197 1 -315 -14 -315 -4 0
-10 64 -14 143 -3 78 -9 202 -13 275 -4 96 -3 132 6 132 6 0 11 -6 11 -14z
m-128 -53 c6 -16 10 -39 9 -52 0 -14 3 -27 8 -30 4 -3 5 -30 1 -59 -3 -29 -3
-55 1 -58 4 -2 4 -19 -1 -37 -4 -17 -14 -67 -20 -109 -13 -77 -22 -94 -34 -61
-6 15 -25 312 -26 396 0 33 3 37 25 37 18 0 29 -8 37 -27z m-570 -80 l1 -38 4
38 c11 100 31 -15 34 -188 1 -135 -1 -175 -11 -175 -5 0 -11 21 -12 48 l-2 47
-3 -47 c-3 -32 -9 -48 -18 -48 -16 0 -21 50 -24 253 -2 127 0 147 14 147 10 0
15 -11 17 -37z m-107 -205 l7 -148 -36 0 -36 0 0 123 c0 106 3 127 21 156 11
19 24 30 29 25 4 -5 11 -75 15 -156z"/>
<path d="M4410 2879 c0 -5 -4 -7 -10 -4 -6 4 -9 -27 -8 -87 l2 -93 6 75 c5 58
7 38 8 -92 1 -104 6 -168 12 -168 6 0 10 62 10 165 0 140 2 165 15 165 13 0
15 -27 17 -172 1 -136 3 -158 8 -103 4 39 8 116 9 173 1 86 3 102 17 102 11 0
14 5 10 16 -3 9 -6 18 -6 20 0 3 -4 2 -10 -1 -5 -3 -10 -1 -10 4 0 6 -4 11
-10 11 -5 0 -10 -7 -10 -15 0 -8 -7 -15 -15 -15 -8 0 -15 7 -15 15 0 8 -4 15
-10 15 -5 0 -10 -5 -10 -11z"/>
<path d="M3505 2858 c-2 -7 -13 -56 -25 -108 -12 -52 -31 -128 -42 -168 -12
-40 -18 -75 -15 -78 3 -3 24 -8 46 -11 l41 -6 1 164 c1 90 2 176 3 192 3 28
-2 36 -9 15z"/>
<path d="M92 433 c1 -224 3 -382 5 -350 3 49 7 57 23 57 11 0 20 6 20 13 0 9
2 9 9 -1 5 -9 28 -12 75 -10 l68 3 -19 22 c-16 18 -29 22 -86 21 -37 -1 -70 2
-73 5 -3 3 -3 15 1 26 6 21 9 21 309 15 290 -6 303 -6 311 12 4 11 7 28 6 39
-1 11 8 26 19 33 30 18 38 -12 13 -46 -21 -29 -20 -52 3 -52 18 0 18 -9 -3
-32 -9 -10 -14 -21 -11 -24 6 -5 286 -44 321 -44 11 0 17 8 17 24 0 19 6 26
27 29 l28 4 -28 2 c-28 1 -29 2 -22 44 4 23 11 43 15 45 11 4 -1 56 -16 65
-21 12 -17 35 9 49 28 15 367 23 367 8 0 -6 -6 -19 -12 -31 -11 -17 -10 -22 5
-30 17 -10 25 -49 10 -49 -5 0 -9 -12 -10 -27 -1 -16 -4 -52 -8 -80 -3 -29 -2
-53 3 -53 9 0 22 70 22 121 0 16 5 29 11 29 7 0 9 11 6 26 -3 19 1 28 17 34
17 7 18 9 4 9 -21 1 -25 45 -5 58 6 4 99 10 205 13 145 4 192 2 192 -7 0 -6
-5 -15 -10 -18 -8 -5 -8 -11 0 -20 7 -9 7 -21 0 -39 -11 -29 -2 -166 10 -166
4 0 15 12 25 26 15 23 16 49 13 204 -3 179 -3 179 20 183 18 3 22 0 23 -22 1
-14 5 -37 10 -51 8 -22 8 -22 4 7 -3 22 0 33 11 37 24 9 24 9 24 -30 0 -31 2
-34 15 -20 17 17 20 72 5 81 -13 8 -3 25 16 25 11 0 14 -17 14 -78 0 -172 13
-352 25 -352 13 0 13 24 1 53 -11 22 -1 47 19 47 14 0 19 -28 18 -87 -1 -14
95 -29 107 -17 5 5 10 29 12 53 3 47 28 72 28 28 0 -13 3 -39 6 -56 6 -29 9
-31 48 -30 22 0 35 3 29 6 -15 6 -17 33 -3 33 6 0 10 11 10 25 0 14 4 25 9 25
10 0 21 -34 21 -67 0 -20 5 -23 38 -23 48 0 53 5 41 37 -6 17 -6 30 2 39 16
19 26 10 34 -32 l6 -37 99 7 c76 5 99 4 104 -6 5 -10 7 -10 12 0 4 8 25 11 62
10 l57 -1 -50 -7 c-27 -5 33 -6 135 -4 102 2 211 0 243 -4 49 -7 57 -6 57 7 0
11 3 12 8 4 5 -8 52 -12 147 -13 222 -2 205 -5 206 33 l2 32 7 -35 c7 -34 7
-34 10 15 2 28 3 111 4 185 1 120 21 269 53 398 l5 22 -188 1 c-104 1 -238 3
-299 4 -60 1 -621 5 -1245 8 -624 4 -1305 10 -1512 13 l-378 5 2 -408z m394
37 c229 0 242 -1 247 -19 2 -10 1 -24 -3 -31 -4 -7 1 -28 12 -47 16 -26 18
-37 9 -46 -9 -9 -17 -8 -33 2 -14 9 -23 10 -26 3 -4 -12 -42 -4 -42 9 0 5 13
9 29 9 39 0 50 19 23 40 -18 15 -50 18 -248 19 -165 1 -230 -2 -235 -10 -5 -9
-12 -8 -24 4 -9 10 -30 17 -46 17 -19 0 -29 5 -29 15 0 8 5 15 10 15 6 0 10 7
10 16 0 14 8 16 53 10 28 -3 161 -6 293 -6z"/>
<path d="M3846 793 c-3 -10 -8 -42 -11 -72 -3 -30 -9 -59 -15 -66 -25 -30 -40
-145 -40 -317 l0 -178 40 -6 c32 -5 40 -11 40 -28 1 -20 2 -19 15 4 19 33 19
50 0 50 -12 0 -15 19 -15 108 0 60 -3 143 -6 185 l-7 77 37 0 36 0 2 -72 c1
-40 2 -80 4 -88 1 -8 3 -46 4 -85 2 -38 5 -60 7 -48 4 19 11 23 39 23 19 0 34
-4 34 -10 0 -5 7 -10 15 -10 8 0 15 4 15 9 0 4 14 7 32 5 28 -4 47 7 48 27 0
4 -18 9 -40 13 -24 4 -38 11 -35 16 4 6 10 8 15 5 5 -3 12 0 16 6 4 8 3 9 -4
5 -7 -4 -12 -1 -12 8 0 11 14 16 58 19 47 3 43 4 -25 5 -141 3 -92 20 62 21
l145 1 0 -45 c0 -25 -4 -45 -9 -45 -6 0 -6 -12 1 -31 16 -47 29 -16 26 64 l-3
67 -170 -1 c-93 0 -164 -3 -157 -6 23 -9 12 -23 -18 -23 -27 0 -30 3 -30 34
l0 33 185 -5 c133 -3 185 -1 185 7 0 8 -55 11 -185 11 l-185 0 2 28 c1 15 -1
32 -4 38 -4 5 -8 71 -9 147 l-3 137 -37 0 c-27 0 -39 -5 -43 -17z"/>
<path d="M4314 779 c3 -17 6 -35 6 -40 0 -5 18 -9 40 -9 37 0 40 -2 40 -27 0
-16 3 -45 6 -65 l7 -38 80 0 80 0 -6 45 c-7 44 -6 45 22 45 28 0 30 -2 35 -52
2 -29 5 -62 5 -73 0 -11 3 -57 7 -102 6 -76 -3 -174 -13 -145 -7 18 -21 15
-26 -6 -4 -16 -5 -16 -6 1 -2 36 -21 5 -21 -34 0 -25 4 -38 10 -34 6 4 13 -8
17 -26 5 -28 7 -30 14 -14 7 20 8 20 10 0 1 -11 5 0 8 25 l6 45 160 1 c219 1
216 1 208 21 -4 9 -8 12 -10 6 -3 -8 -14 -8 -33 -3 -16 4 -31 6 -34 3 -3 -3
-18 1 -35 8 -27 12 -31 19 -34 64 l-3 50 -2 -54 c-2 -53 -2 -53 -31 -49 -19 3
-27 0 -25 -7 3 -8 -10 -10 -41 -8 -25 2 -45 0 -45 -5 0 -4 -12 -9 -27 -10
l-28 -2 0 94 -1 94 118 -1 c110 0 117 -2 121 -21 3 -12 5 -6 6 14 1 25 4 31
10 21 6 -9 25 -14 55 -13 l46 2 0 -77 c0 -43 4 -83 8 -90 5 -8 64 -12 210 -12
l202 1 0 29 c0 20 -4 28 -12 23 -7 -4 -8 -3 -4 5 4 6 11 9 16 6 13 -8 23 79
16 136 l-7 49 48 1 c26 0 65 1 86 1 l37 0 0 68 c0 38 2 75 5 82 8 19 -74 16
-86 -3 -7 -11 -9 -11 -9 -1 0 7 -4 10 -10 7 -5 -3 -10 -2 -10 3 0 5 -13 8 -30
6 -16 -2 -30 1 -30 6 0 6 -3 10 -7 10 -5 0 -8 -70 -8 -155 0 -112 -4 -158 -13
-167 -11 -11 -12 -10 -7 4 4 9 2 24 -3 34 -7 13 -10 10 -17 -17 l-8 -34 -7 45
c-4 25 -8 36 -9 25 -1 -17 -3 -18 -11 -5 -7 11 -10 -2 -10 -44 0 -70 -11 -70
-13 0 l-2 48 -80 -1 c-162 -2 -145 4 -146 -55 l-2 -53 -10 48 c-11 50 -27 63
-27 21 0 -14 -4 -23 -10 -19 -5 3 -10 17 -10 31 0 13 -4 24 -10 24 -5 0 -10
14 -10 30 0 18 5 30 13 30 7 0 13 10 13 23 0 12 1 66 2 120 l2 97 45 0 c40 0
45 2 45 23 0 20 -5 22 -55 25 -46 3 -54 1 -49 -12 3 -9 1 -16 -5 -16 -6 0 -11
-17 -11 -40 0 -22 -4 -40 -10 -40 -5 0 -10 -13 -10 -30 l0 -30 -80 0 -80 0 0
29 0 29 65 0 c36 0 69 2 72 6 3 3 -21 6 -55 6 l-62 0 0 35 c0 19 5 35 10 35 6
0 10 7 10 15 0 12 -16 15 -85 15 -71 0 -83 -2 -79 -15 4 -8 1 -15 -5 -15 -6 0
-11 -17 -11 -40 0 -39 1 -40 38 -41 20 -1 49 0 65 1 24 1 27 -2 27 -29 0 -28
-3 -31 -31 -31 -26 0 -30 -3 -26 -19 2 -10 1 -24 -3 -31 -13 -20 -40 -3 -40
25 0 23 -4 25 -45 25 l-45 0 0 45 c0 25 -4 45 -10 45 -5 0 -10 -7 -10 -15 0
-10 -10 -15 -30 -15 -20 0 -30 5 -30 15 0 9 -9 15 -21 15 -11 0 -27 -7 -35
-15 -17 -17 -94 -21 -94 -5 0 11 12 13 48 10 28 -2 30 30 2 37 -17 5 -17 7 -5
20 27 27 15 33 -66 33 l-81 0 6 -31z"/>
<path d="M5305 789 c4 -13 2 -19 -9 -19 -10 0 -16 -9 -16 -22 0 -18 -2 -20 -9
-8 -6 8 -7 18 -5 22 3 4 0 8 -5 8 -6 0 -11 -9 -11 -20 0 -23 -10 -26 -28 -8
-9 9 -12 8 -12 -7 -1 -11 -3 -44 -5 -74 -2 -30 0 -50 3 -45 11 15 63 11 57 -4
-4 -10 7 -12 43 -10 28 2 47 8 48 16 1 6 2 13 3 15 1 1 4 27 7 57 6 73 9 80
38 80 33 0 56 10 56 24 0 9 -25 13 -81 14 -75 1 -80 0 -74 -19z"/>
<path d="M1609 376 c-4 -61 -10 -91 -19 -96 -6 -3 -9 -17 -8 -31 1 -13 -2 -48
-6 -77 l-8 -53 43 3 c40 3 44 5 41 27 -2 13 2 27 8 31 16 10 3 48 -18 53 -12
3 -11 5 5 6 15 1 21 6 17 15 -3 8 0 17 6 21 7 4 14 -2 17 -14 7 -28 72 -31 69
-3 -1 12 6 17 24 15 14 -1 18 0 8 3 -10 3 -18 9 -18 14 0 5 -3 15 -6 24 -4 10
-1 16 9 16 13 0 13 4 4 25 -17 35 -67 36 -67 1 0 -18 7 -26 23 -29 19 -4 19
-4 -5 -6 -19 -1 -28 -7 -31 -23 l-4 -23 -8 22 c-5 15 -17 23 -39 26 -26 3 -24
4 11 5 39 2 42 4 34 25 -6 15 -19 24 -45 28 -23 4 -36 2 -37 -5z"/>
</g>
</svg>
